<?xml version="1.0" encoding="utf-8"?>
<!-- Generator: Adobe Illustrator 24.0.1, SVG Export Plug-In . SVG Version: 6.00 Build 0)  -->
<svg version="1.1" id="Layer_1" xmlns="http://www.w3.org/2000/svg" xmlns:xlink="http://www.w3.org/1999/xlink" x="0px" y="0px"
	 viewBox="0 0 956.5 112.8" style="enable-background:new 0 0 956.5 112.8;" xml:space="preserve">
<style type="text/css">
	.st0{fill:#C9C7C7;}
</style>
<title>ellips</title>
<g>
	<path class="st0" d="M908.7,0l-1.9,1.7C937.3,7.1,954,14,954.5,21.9c0.8,13.9-49,30.7-136.7,46.1c-89.5,15.7-209,28.5-336.4,36
		s-247.6,8.9-338.3,3.8C54.3,102.8,2.8,92,2,78.1c-0.5-9.2,20.9-19.6,60.6-30l-2.3-1.5C25.6,55.8-0.7,66.6,0,78.2
		c1.2,19.6,78.4,28,143,31.6c36.2,2,77.1,3,121.2,3c66.6,0,140.6-2.3,217.3-6.8c127.5-7.5,247-20.3,336.6-36
		c63.7-11.2,139.5-28.6,138.3-48.2C955.9,12,936.3,5,908.7,0z"/>
	<path class="st0" d="M264.3,113.8c-44.4,0-85.2-1-121.3-3C48.4,105.5,0,94.6-1,78.3c-0.6-10.9,19.3-21.6,61.1-32.7l0.4-0.1l4.5,3
		L62.9,49C10.1,62.9,2.7,73.1,3,78c0.8,13.1,53.2,23.9,140.2,28.8c90.6,5.1,210.7,3.7,338.1-3.8c127.4-7.5,246.8-20.3,336.3-36
		C903.5,52,954.2,35.1,953.5,22c-0.2-4.1-6.7-12.1-46.9-19.3l-2-0.4l3.8-3.4l0.5,0.1c32.1,5.8,48,13.3,48.6,22.7
		c1,16.3-45.9,32.9-139.1,49.2C728.6,86.7,609,99.5,481.6,107C404.9,111.5,331.8,113.8,264.3,113.8z M16.1,90.7
		c21.3,8.3,64.6,14.6,127,18.1c14,0.8,28.7,1.4,44.1,1.9c-15.3-0.5-30.1-1.1-44.1-1.9C103.6,106.6,43.8,101.5,16.1,90.7z M1,77.4
		c0,0.2,0,0.5,0,0.7c0.1,1.1,0.4,2.2,1,3.3c-0.6-1.1-1-2.1-1-3.3C1,77.9,1,77.6,1,77.4z M927.9,42.4C898.2,53.7,851,63.2,818,69
		c-20.7,3.6-43.1,7.1-66.7,10.4c23.7-3.3,46-6.8,66.8-10.4C867.6,60.3,904.8,51.3,927.9,42.4z M60.2,47.6
		c-12.2,3.3-22.1,6.4-29.9,9.3C38.5,53.9,48.5,50.8,60.2,47.6L60.2,47.6z M955.2,20.6c0.1,0.4,0.2,0.9,0.2,1.3c0.1,1-0.1,2-0.5,3
		c0.4-1,0.5-2,0.5-3C955.4,21.4,955.4,21,955.2,20.6z M908.9,1.1c9.1,1.7,16.8,3.4,23.2,5.3C926.1,4.6,918.5,2.8,908.9,1.1
		L908.9,1.1z"/>
</g>
</svg>
