<?xml version="1.0" encoding="utf-8"?>
<!-- Generator: Adobe Illustrator 24.0.1, SVG Export Plug-In . SVG Version: 6.00 Build 0)  -->
<svg version="1.1" id="Layer_1" xmlns="http://www.w3.org/2000/svg" xmlns:xlink="http://www.w3.org/1999/xlink" x="0px" y="0px"
	 viewBox="0 0 956.5 112.8" style="enable-background:new 0 0 956.5 112.8;" xml:space="preserve">
<style type="text/css">
	.st0{fill:#EAEAEA;}
</style>
<title>ellips</title>
<g>
	
		<image style="overflow:visible;opacity:0.75;" width="971" height="126" xlink:href="5880AD76.png"  transform="matrix(1 0 0 1 -7 -2.2)">
	</image>
	<g>
		<path class="st0" d="M948.9,38.3L948.9,38.3c-0.3-9.8-15.8-17.9-47.5-24.7l-1-0.2l-5.7,4.8l3.9,0.9c41.1,8.8,44.4,17.1,44.4,19.5
			c0.2,9.5-34.8,24.7-133.5,38.5c-88.1,12.4-205.3,21-329.8,24.1c-125.2,3.1-242.6,0.5-330.5-7.4C49.9,84.7,14.2,71.3,14,61.8
			c-0.1-3.6,5.4-13.2,58.7-25.4l4.3-0.9l-6.5-4.7l-0.8,0.2C27.4,40.8,7.8,50.6,8,62c0.5,16.8,46.5,29,140.6,37.5
			c35.1,3.1,75,5.5,118.5,6.9c7.7,0.3,15.5,0.5,23.4,0.7c59.2,1.5,122.8,1.5,189.3-0.2c125-3.1,242.4-11.7,330.6-24.2
			C904.1,69.6,949.4,55.1,948.9,38.3z"/>
	</g>
</g>
</svg>
