<svg id="Layer_1" data-name="Layer 1" xmlns="http://www.w3.org/2000/svg" viewBox="0 0 636.8 34.16"><defs><style>.cls-1{fill:#5b5a5b;}</style></defs><title>ellips1</title><path class="cls-1" d="M928.88,631.69a5.9,5.9,0,0,1-2.56,4.2,24.26,24.26,0,0,1-4.33,2.65,69.4,69.4,0,0,1-9.45,3.66c-6.45,2-13,3.54-19.65,4.9-13.24,2.69-26.6,4.67-40,6.42-26.79,3.35-53.69,5.6-80.62,7.41-53.86,3.54-107.84,4.85-161.8,4.92s-107.94-1.37-161.8-4.91c-26.92-1.81-53.83-4.06-80.62-7.41-13.38-1.75-26.75-3.73-40-6.43-6.61-1.36-13.2-2.89-19.66-4.9a69.4,69.4,0,0,1-9.45-3.66,24.54,24.54,0,0,1-4.32-2.65,5.91,5.91,0,0,1-2.57-4.2,5.85,5.85,0,0,0,2.66,4.08,24.48,24.48,0,0,0,4.36,2.5,70.47,70.47,0,0,0,9.5,3.36c6.47,1.84,13.06,3.23,19.68,4.43,13.25,2.39,26.62,4.07,40,5.52,26.78,2.95,53.67,4.85,80.57,6.29s53.84,2.45,80.78,3,53.89,1,80.84,1,53.9-.29,80.84-.94,53.87-1.67,80.78-3,53.8-3.34,80.57-6.28c13.39-1.45,26.77-3.13,40-5.53,6.62-1.2,13.21-2.59,19.68-4.43a70.33,70.33,0,0,0,9.49-3.36,23.8,23.8,0,0,0,4.36-2.5A5.79,5.79,0,0,0,928.88,631.69Z" transform="translate(-292.08 -631.69)"/></svg>