<?xml version="1.0" encoding="utf-8"?>
<!-- Generator: Adobe Illustrator 24.0.1, SVG Export Plug-In . SVG Version: 6.00 Build 0)  -->
<svg version="1.1" id="Layer_1" xmlns="http://www.w3.org/2000/svg" xmlns:xlink="http://www.w3.org/1999/xlink" x="0px" y="0px"
	 viewBox="0 0 956.5 112.8" style="enable-background:new 0 0 956.5 112.8;" xml:space="preserve">
<style type="text/css">
	.st0{fill:#C9C7C7;}
</style>
<title>ellips</title>
<g>
	<path class="st0" d="M910.1,11.9l-2,1.7c30.4,6.2,46.9,13.6,47.1,21.5c0.4,13.9-49.8,29.4-137.9,42.3
		c-89.9,13.2-209.7,22.7-337.3,26.7s-247.7,2-338.2-5.6C53.2,91.1,2,78.8,1.6,64.9C1.3,55.7,23,45.9,63,36.6L60.8,35
		c-35,8.3-61.5,18.4-61.2,30c0.6,19.6,77.6,30.2,142.1,35.5c36.1,3,77,5.1,121.1,6.3c66.6,1.8,140.6,1.6,217.4-0.8
		c127.7-4,247.5-13.5,337.5-26.7c64-9.4,140.2-24.8,139.6-44.3C956.9,25.2,937.5,17.7,910.1,11.9z"/>
	<path class="st0" d="M262.8,107.9c-44.4-1.2-85.2-3.4-121.2-6.4C47.2,93.6-0.9,81.3-1.4,65c-0.3-10.9,19.9-21,61.9-31l0.4-0.1
		l4.4,3.1l-2.2,0.5C10.1,49.9,2.5,60,2.6,64.9C3,78,55.1,90.2,141.9,97.5c90.5,7.6,210.6,9.6,338.1,5.6
		c127.5-4,247.2-13.5,337.1-26.7c86.2-12.7,137.4-28.1,137-41.3c-0.1-4.1-6.3-12.3-46.3-20.5l-2-0.4l3.9-3.3l0.5,0.1
		c32,6.7,47.6,14.6,47.9,24.1c0.5,16.3-46.7,31.6-140.4,45.4c-90.1,13.2-210,22.7-337.6,26.7C403.4,109.5,330.3,109.7,262.8,107.9z
		 M15.3,78c21,8.9,64.2,16.4,126.5,21.6c14,1.2,28.7,2.2,44,3.1c-15.3-0.9-30-1.9-44-3.1C102.3,96.2,42.7,89.5,15.3,78z M0.6,64.2
		c0,0.2,0,0.5,0,0.7c0,1.1,0.4,2.2,0.9,3.3c-0.6-1.1-0.9-2.2-0.9-3.3C0.6,64.7,0.6,64.4,0.6,64.2z M928.1,54.9
		c-29.9,10.4-77.4,18.6-110.6,23.5c-20.8,3.1-43.3,5.9-67,8.6c23.7-2.6,46.2-5.5,67-8.6C867.4,71.1,904.8,63.1,928.1,54.9z
		 M60.6,36.1c-12.3,2.9-22.2,5.8-30.2,8.5C38.7,41.7,48.8,38.9,60.6,36.1L60.6,36.1z M956.1,33.8c0.1,0.4,0.2,0.9,0.2,1.3
		c0,1-0.2,2-0.6,2.9c0.4-1,0.6-2,0.6-2.9C956.2,34.6,956.2,34.2,956.1,33.8z M910.3,13c9,1.9,16.7,3.9,23.1,6
		C927.3,17,919.8,15,910.3,13L910.3,13z"/>
</g>
</svg>
