<?xml version="1.0" encoding="utf-8"?>
<!-- Generator: Adobe Illustrator 24.0.1, SVG Export Plug-In . SVG Version: 6.00 Build 0)  -->
<svg version="1.1" id="Layer_1" xmlns="http://www.w3.org/2000/svg" xmlns:xlink="http://www.w3.org/1999/xlink" x="0px" y="0px"
	 viewBox="0 0 956.5 112.8" style="enable-background:new 0 0 956.5 112.8;" xml:space="preserve">
<style type="text/css">
	.st0{fill:#7F7E7E;}
</style>
<title>ellips</title>
<path class="st0" d="M908.3,14.7l-1-0.2l-5.8,4.9l4,0.9c40.4,8.7,45,16.9,45,19.9c0.2,9.7-35.3,24.9-135.7,38.6
	C725.3,91,606.3,99.2,479.6,101.9c-126.8,2.7-246.1-0.5-335.8-9C42.8,83.4,6.7,69.6,6.5,60c-0.1-3.7,5.6-13.5,59.7-25.5l4.3-1
	L64,28.8L63.2,29c-43,9.7-62.9,19.6-62.6,31.2c0.4,17.1,47,29.7,142.6,38.7c35.7,3.3,76.2,5.9,120.4,7.6
	c41.2,1.6,84.6,2.3,129.6,2.3c28.3,0,57.2-0.3,86.6-0.9c126.9-2.7,246.1-10.9,335.9-23.1c95.2-13,141.2-27.6,140.9-44.7
	C956.2,30,940.9,21.9,908.3,14.7z"/>
</svg>
