<svg id="Layer_1" data-name="Layer 1" xmlns="http://www.w3.org/2000/svg" viewBox="0 0 956.46 112.82"><defs><style>.cls-1{fill:#555;}</style></defs><title>ellips</title><path class="cls-1" d="M1007.54,549.33l-1.92,1.74c30.52,5.4,47.22,12.3,47.68,20.18.82,13.92-49,30.72-136.65,46.1-89.49,15.7-208.95,28.49-336.39,36S332.69,662.2,242,657.12c-88.86-5-140.3-15.81-141.12-29.73-.54-9.17,20.87-19.58,60.58-30l-2.27-1.52c-34.75,9.24-61,20.07-60.31,31.66,1.15,19.57,78.41,28,143,31.61,36.2,2,77.08,3,121.23,3,66.59,0,140.62-2.29,217.28-6.81,127.51-7.51,247-20.3,336.61-36,63.73-11.18,139.46-28.62,138.31-48.19C1054.72,561.34,1035.1,554.34,1007.54,549.33Z" transform="translate(-98.85 -549.33)"/></svg>